<mxfile host="app.diagrams.net" modified="2023-04-28T11:38:14.874Z" agent="Mozilla/5.0 (Windows NT 10.0; Win64; x64) AppleWebKit/537.36 (KHTML, like Gecko) Chrome/112.0.0.0 Safari/537.36" etag="xqkjsNN1KPvIuW3lfL3b" version="21.2.3" type="google">
  <diagram name="StrÃ¡nka-1" id="uwl8ab2JNrWv31Y4u0zx">
    <mxGraphModel grid="1" page="1" gridSize="10" guides="1" tooltips="1" connect="1" arrows="1" fold="1" pageScale="1" pageWidth="827" pageHeight="1169" math="0" shadow="0">
      <root>
        <mxCell id="0" />
        <mxCell id="1" parent="0" />
        <mxCell id="69hqdWO1XFi4Cxc47hLE-2" style="edgeStyle=orthogonalEdgeStyle;rounded=0;orthogonalLoop=1;jettySize=auto;html=1;endArrow=none;endFill=0;" edge="1" parent="1" source="xg2BrnEvIoWSySNz5MbH-3" target="69hqdWO1XFi4Cxc47hLE-1">
          <mxGeometry relative="1" as="geometry" />
        </mxCell>
        <mxCell id="xg2BrnEvIoWSySNz5MbH-3" value="API&lt;br&gt;Gateway" style="html=1;whiteSpace=wrap;" vertex="1" parent="1">
          <mxGeometry x="140" y="200" width="110" height="50" as="geometry" />
        </mxCell>
        <mxCell id="xg2BrnEvIoWSySNz5MbH-4" value="Employee microservice" style="html=1;whiteSpace=wrap;" vertex="1" parent="1">
          <mxGeometry x="400" y="145" width="110" height="50" as="geometry" />
        </mxCell>
        <mxCell id="xg2BrnEvIoWSySNz5MbH-5" value="&lt;br&gt;Employee&lt;br&gt;Database" style="strokeWidth=2;html=1;shape=mxgraph.flowchart.database;whiteSpace=wrap;" vertex="1" parent="1">
          <mxGeometry x="425" y="30" width="60" height="60" as="geometry" />
        </mxCell>
        <mxCell id="69hqdWO1XFi4Cxc47hLE-6" style="edgeStyle=orthogonalEdgeStyle;rounded=0;orthogonalLoop=1;jettySize=auto;html=1;endArrow=none;endFill=0;dashed=1;" edge="1" parent="1" source="xg2BrnEvIoWSySNz5MbH-7" target="Dra0QNxIgkLAdRRXryqH-5">
          <mxGeometry relative="1" as="geometry">
            <Array as="points">
              <mxPoint x="390" y="280" />
              <mxPoint x="390" y="280" />
            </Array>
          </mxGeometry>
        </mxCell>
        <mxCell id="xg2BrnEvIoWSySNz5MbH-7" value="Project microservice" style="html=1;whiteSpace=wrap;" vertex="1" parent="1">
          <mxGeometry x="400" y="265" width="110" height="50" as="geometry" />
        </mxCell>
        <mxCell id="UUW0Z_iSMbLDp8S3WXfS-2" style="edgeStyle=orthogonalEdgeStyle;rounded=0;orthogonalLoop=1;jettySize=auto;html=1;entryX=-0.007;entryY=0.257;entryDx=0;entryDy=0;entryPerimeter=0;endArrow=none;endFill=0;dashed=1;" edge="1" parent="1" source="xg2BrnEvIoWSySNz5MbH-8" target="UUW0Z_iSMbLDp8S3WXfS-1">
          <mxGeometry relative="1" as="geometry">
            <Array as="points">
              <mxPoint x="670" y="290" />
              <mxPoint x="670" y="380" />
              <mxPoint x="686" y="380" />
            </Array>
          </mxGeometry>
        </mxCell>
        <mxCell id="xg2BrnEvIoWSySNz5MbH-8" value="&lt;br&gt;Project&lt;br&gt;Database" style="strokeWidth=2;html=1;shape=mxgraph.flowchart.database;whiteSpace=wrap;fontStyle=1" vertex="1" parent="1">
          <mxGeometry x="570" y="260" width="60" height="60" as="geometry" />
        </mxCell>
        <mxCell id="xg2BrnEvIoWSySNz5MbH-11" value="" style="endArrow=none;html=1;rounded=0;exitX=1;exitY=0.5;exitDx=0;exitDy=0;" edge="1" parent="1" source="xg2BrnEvIoWSySNz5MbH-3" target="xg2BrnEvIoWSySNz5MbH-7">
          <mxGeometry width="50" height="50" relative="1" as="geometry">
            <mxPoint x="350" y="244.0625" as="sourcePoint" />
            <mxPoint x="439" y="65" as="targetPoint" />
          </mxGeometry>
        </mxCell>
        <mxCell id="xg2BrnEvIoWSySNz5MbH-12" value="Email service" style="html=1;whiteSpace=wrap;" vertex="1" parent="1">
          <mxGeometry x="570" y="196.5" width="110" height="50" as="geometry" />
        </mxCell>
        <mxCell id="xg2BrnEvIoWSySNz5MbH-13" value="" style="endArrow=none;html=1;rounded=0;entryX=0;entryY=0.25;entryDx=0;entryDy=0;exitX=1;exitY=0.75;exitDx=0;exitDy=0;" edge="1" parent="1" source="xg2BrnEvIoWSySNz5MbH-4" target="xg2BrnEvIoWSySNz5MbH-12">
          <mxGeometry width="50" height="50" relative="1" as="geometry">
            <mxPoint x="180" y="206" as="sourcePoint" />
            <mxPoint x="410" y="185" as="targetPoint" />
          </mxGeometry>
        </mxCell>
        <mxCell id="xg2BrnEvIoWSySNz5MbH-17" value="Password Generation&lt;br&gt;Service" style="html=1;whiteSpace=wrap;" vertex="1" parent="1">
          <mxGeometry x="570" y="130" width="110" height="50" as="geometry" />
        </mxCell>
        <mxCell id="xg2BrnEvIoWSySNz5MbH-18" value="" style="endArrow=none;html=1;rounded=0;" edge="1" parent="1" source="xg2BrnEvIoWSySNz5MbH-4" target="xg2BrnEvIoWSySNz5MbH-17">
          <mxGeometry width="50" height="50" relative="1" as="geometry">
            <mxPoint x="520" y="170" as="sourcePoint" />
            <mxPoint x="690" y="140" as="targetPoint" />
          </mxGeometry>
        </mxCell>
        <mxCell id="xg2BrnEvIoWSySNz5MbH-19" value="Login attempt checker" style="html=1;whiteSpace=wrap;" vertex="1" parent="1">
          <mxGeometry x="570" y="55" width="110" height="50" as="geometry" />
        </mxCell>
        <mxCell id="xg2BrnEvIoWSySNz5MbH-20" value="" style="endArrow=none;html=1;rounded=0;exitX=1;exitY=0.25;exitDx=0;exitDy=0;entryX=0;entryY=0.75;entryDx=0;entryDy=0;" edge="1" parent="1" source="xg2BrnEvIoWSySNz5MbH-4" target="xg2BrnEvIoWSySNz5MbH-19">
          <mxGeometry width="50" height="50" relative="1" as="geometry">
            <mxPoint x="501" y="155" as="sourcePoint" />
            <mxPoint x="579" y="100" as="targetPoint" />
          </mxGeometry>
        </mxCell>
        <mxCell id="xg2BrnEvIoWSySNz5MbH-21" value="&lt;br&gt;login&lt;br&gt;checker&lt;br&gt;database" style="strokeWidth=2;html=1;shape=mxgraph.flowchart.database;whiteSpace=wrap;" vertex="1" parent="1">
          <mxGeometry x="737" y="45" width="70" height="70" as="geometry" />
        </mxCell>
        <mxCell id="xg2BrnEvIoWSySNz5MbH-22" value="" style="endArrow=none;html=1;rounded=0;" edge="1" parent="1" source="xg2BrnEvIoWSySNz5MbH-19" target="xg2BrnEvIoWSySNz5MbH-21">
          <mxGeometry width="50" height="50" relative="1" as="geometry">
            <mxPoint x="512" y="155" as="sourcePoint" />
            <mxPoint x="588" y="115" as="targetPoint" />
          </mxGeometry>
        </mxCell>
        <mxCell id="xg2BrnEvIoWSySNz5MbH-24" value="" style="endArrow=none;html=1;rounded=0;" edge="1" parent="1" source="xg2BrnEvIoWSySNz5MbH-5" target="xg2BrnEvIoWSySNz5MbH-4">
          <mxGeometry width="50" height="50" relative="1" as="geometry">
            <mxPoint x="690" y="90" as="sourcePoint" />
            <mxPoint x="760" y="90" as="targetPoint" />
          </mxGeometry>
        </mxCell>
        <mxCell id="xg2BrnEvIoWSySNz5MbH-25" value="" style="endArrow=none;html=1;rounded=0;" edge="1" parent="1" source="xg2BrnEvIoWSySNz5MbH-7" target="xg2BrnEvIoWSySNz5MbH-8">
          <mxGeometry width="50" height="50" relative="1" as="geometry">
            <mxPoint x="520" y="197" as="sourcePoint" />
            <mxPoint x="620" y="290" as="targetPoint" />
          </mxGeometry>
        </mxCell>
        <mxCell id="m9TuUdlifSfDN-fBkJ4Z-1" value="&lt;br&gt;Some NoSQL temporal database" style="shape=note;whiteSpace=wrap;html=1;backgroundOutline=1;darkOpacity=0.05;size=17;" vertex="1" parent="1">
          <mxGeometry x="732" y="155" width="80" height="65" as="geometry" />
        </mxCell>
        <mxCell id="m9TuUdlifSfDN-fBkJ4Z-2" value="" style="endArrow=none;html=1;rounded=0;dashed=1;" edge="1" parent="1" source="xg2BrnEvIoWSySNz5MbH-21" target="m9TuUdlifSfDN-fBkJ4Z-1">
          <mxGeometry width="50" height="50" relative="1" as="geometry">
            <mxPoint x="677" y="90" as="sourcePoint" />
            <mxPoint x="747" y="90" as="targetPoint" />
          </mxGeometry>
        </mxCell>
        <mxCell id="PNd17i-r5ypCwwzc9HIO-3" value="" style="endArrow=none;html=1;rounded=0;exitX=1;exitY=0.5;exitDx=0;exitDy=0;" edge="1" parent="1" source="xg2BrnEvIoWSySNz5MbH-3" target="xg2BrnEvIoWSySNz5MbH-4">
          <mxGeometry width="50" height="50" relative="1" as="geometry">
            <mxPoint x="350" y="203" as="sourcePoint" />
            <mxPoint x="410" y="281" as="targetPoint" />
          </mxGeometry>
        </mxCell>
        <mxCell id="d26m46aapRvfY2NJ-9Mn-1" value="Risk microservice" style="html=1;whiteSpace=wrap;" vertex="1" parent="1">
          <mxGeometry x="400" y="355" width="110" height="50" as="geometry" />
        </mxCell>
        <mxCell id="UUW0Z_iSMbLDp8S3WXfS-3" style="edgeStyle=orthogonalEdgeStyle;rounded=0;orthogonalLoop=1;jettySize=auto;html=1;endArrow=none;endFill=0;dashed=1;" edge="1" parent="1" source="d26m46aapRvfY2NJ-9Mn-2" target="UUW0Z_iSMbLDp8S3WXfS-1">
          <mxGeometry relative="1" as="geometry">
            <Array as="points">
              <mxPoint x="660" y="380" />
              <mxPoint x="660" y="398" />
            </Array>
          </mxGeometry>
        </mxCell>
        <mxCell id="d26m46aapRvfY2NJ-9Mn-2" value="&lt;br&gt;Risk&lt;br&gt;Database" style="strokeWidth=2;html=1;shape=mxgraph.flowchart.database;whiteSpace=wrap;fontStyle=1" vertex="1" parent="1">
          <mxGeometry x="570" y="350" width="60" height="60" as="geometry" />
        </mxCell>
        <mxCell id="d26m46aapRvfY2NJ-9Mn-3" value="" style="endArrow=none;html=1;rounded=0;" edge="1" parent="1" source="d26m46aapRvfY2NJ-9Mn-1" target="d26m46aapRvfY2NJ-9Mn-2">
          <mxGeometry width="50" height="50" relative="1" as="geometry">
            <mxPoint x="520" y="287" as="sourcePoint" />
            <mxPoint x="620" y="380" as="targetPoint" />
          </mxGeometry>
        </mxCell>
        <mxCell id="d26m46aapRvfY2NJ-9Mn-4" value="Project phase microservice" style="html=1;whiteSpace=wrap;" vertex="1" parent="1">
          <mxGeometry x="400" y="435" width="110" height="50" as="geometry" />
        </mxCell>
        <mxCell id="UUW0Z_iSMbLDp8S3WXfS-4" style="edgeStyle=orthogonalEdgeStyle;rounded=0;orthogonalLoop=1;jettySize=auto;html=1;endArrow=none;endFill=0;dashed=1;" edge="1" parent="1" source="d26m46aapRvfY2NJ-9Mn-5" target="UUW0Z_iSMbLDp8S3WXfS-1">
          <mxGeometry relative="1" as="geometry">
            <Array as="points">
              <mxPoint x="660" y="470" />
              <mxPoint x="660" y="430" />
            </Array>
          </mxGeometry>
        </mxCell>
        <mxCell id="d26m46aapRvfY2NJ-9Mn-5" value="&lt;br&gt;&lt;br&gt;Project&lt;br&gt;phase&lt;br&gt;Database" style="strokeWidth=2;html=1;shape=mxgraph.flowchart.database;whiteSpace=wrap;fontStyle=1" vertex="1" parent="1">
          <mxGeometry x="570" y="420" width="70" height="80" as="geometry" />
        </mxCell>
        <mxCell id="d26m46aapRvfY2NJ-9Mn-6" value="" style="endArrow=none;html=1;rounded=0;" edge="1" parent="1" source="d26m46aapRvfY2NJ-9Mn-4" target="d26m46aapRvfY2NJ-9Mn-5">
          <mxGeometry width="50" height="50" relative="1" as="geometry">
            <mxPoint x="520" y="367" as="sourcePoint" />
            <mxPoint x="620" y="460" as="targetPoint" />
          </mxGeometry>
        </mxCell>
        <mxCell id="d26m46aapRvfY2NJ-9Mn-7" value="Opportunity microservice" style="html=1;whiteSpace=wrap;fontStyle=1;strokeWidth=2;" vertex="1" parent="1">
          <mxGeometry x="400" y="525" width="110" height="50" as="geometry" />
        </mxCell>
        <mxCell id="UUW0Z_iSMbLDp8S3WXfS-5" style="edgeStyle=orthogonalEdgeStyle;rounded=0;orthogonalLoop=1;jettySize=auto;html=1;endArrow=none;endFill=0;dashed=1;" edge="1" parent="1" source="d26m46aapRvfY2NJ-9Mn-8" target="UUW0Z_iSMbLDp8S3WXfS-1">
          <mxGeometry relative="1" as="geometry">
            <Array as="points">
              <mxPoint x="670" y="550" />
              <mxPoint x="670" y="450" />
            </Array>
          </mxGeometry>
        </mxCell>
        <mxCell id="d26m46aapRvfY2NJ-9Mn-8" value="&lt;br&gt;Opportunity&lt;br&gt;Database" style="strokeWidth=2;html=1;shape=mxgraph.flowchart.database;whiteSpace=wrap;fontStyle=1" vertex="1" parent="1">
          <mxGeometry x="570" y="520" width="70" height="60" as="geometry" />
        </mxCell>
        <mxCell id="d26m46aapRvfY2NJ-9Mn-9" value="" style="endArrow=none;html=1;rounded=0;" edge="1" parent="1" source="d26m46aapRvfY2NJ-9Mn-7" target="d26m46aapRvfY2NJ-9Mn-8">
          <mxGeometry width="50" height="50" relative="1" as="geometry">
            <mxPoint x="520" y="457" as="sourcePoint" />
            <mxPoint x="620" y="550" as="targetPoint" />
          </mxGeometry>
        </mxCell>
        <mxCell id="d26m46aapRvfY2NJ-9Mn-10" value="" style="endArrow=none;html=1;rounded=0;entryX=0;entryY=0.25;entryDx=0;entryDy=0;exitX=1;exitY=0.5;exitDx=0;exitDy=0;" edge="1" parent="1" source="xg2BrnEvIoWSySNz5MbH-3" target="d26m46aapRvfY2NJ-9Mn-1">
          <mxGeometry width="50" height="50" relative="1" as="geometry">
            <mxPoint x="323" y="245" as="sourcePoint" />
            <mxPoint x="410" y="276" as="targetPoint" />
          </mxGeometry>
        </mxCell>
        <mxCell id="d26m46aapRvfY2NJ-9Mn-11" value="" style="endArrow=none;html=1;rounded=0;entryX=0;entryY=0.5;entryDx=0;entryDy=0;exitX=1;exitY=0.5;exitDx=0;exitDy=0;" edge="1" parent="1" source="xg2BrnEvIoWSySNz5MbH-3" target="d26m46aapRvfY2NJ-9Mn-4">
          <mxGeometry width="50" height="50" relative="1" as="geometry">
            <mxPoint x="322.5" y="245" as="sourcePoint" />
            <mxPoint x="410" y="378" as="targetPoint" />
          </mxGeometry>
        </mxCell>
        <mxCell id="d26m46aapRvfY2NJ-9Mn-12" value="" style="endArrow=none;html=1;rounded=0;entryX=0;entryY=0.25;entryDx=0;entryDy=0;exitX=1;exitY=0.5;exitDx=0;exitDy=0;" edge="1" parent="1" source="xg2BrnEvIoWSySNz5MbH-3" target="d26m46aapRvfY2NJ-9Mn-7">
          <mxGeometry width="50" height="50" relative="1" as="geometry">
            <mxPoint x="322.5" y="245" as="sourcePoint" />
            <mxPoint x="448" y="445" as="targetPoint" />
          </mxGeometry>
        </mxCell>
        <mxCell id="d26m46aapRvfY2NJ-9Mn-13" value="&lt;br&gt;&lt;br&gt;Each microservice is connected to RabbitMQ communication channel, where are messages broadcasted&lt;br&gt;" style="shape=note;whiteSpace=wrap;html=1;backgroundOutline=1;darkOpacity=0.05;" vertex="1" parent="1">
          <mxGeometry x="15" y="600" width="140" height="110" as="geometry" />
        </mxCell>
        <mxCell id="d26m46aapRvfY2NJ-9Mn-15" value="&lt;br&gt;&lt;br&gt;Database consistency need to be handle on application level&lt;br&gt;cannot exist foreighn keys between databases" style="shape=note;whiteSpace=wrap;html=1;backgroundOutline=1;darkOpacity=0.05;" vertex="1" parent="1">
          <mxGeometry x="200" y="615" width="141" height="105" as="geometry" />
        </mxCell>
        <mxCell id="UUW0Z_iSMbLDp8S3WXfS-1" value="&lt;br&gt;&lt;br&gt;Some NoSQL can be mongo, we dont need to handle consistency&lt;br&gt;&lt;br&gt;On azure: MongoDB Atlas on Azure SaaS" style="shape=note;whiteSpace=wrap;html=1;backgroundOutline=1;darkOpacity=0.05;" vertex="1" parent="1">
          <mxGeometry x="687" y="340" width="140" height="140" as="geometry" />
        </mxCell>
        <mxCell id="UUW0Z_iSMbLDp8S3WXfS-6" value="&lt;br&gt;&lt;br&gt;Implement healt check of each microservices,&lt;br&gt;each microservice need to provide metrices, how offten was called and endpoint if its up or not" style="shape=note;whiteSpace=wrap;html=1;backgroundOutline=1;darkOpacity=0.05;" vertex="1" parent="1">
          <mxGeometry x="15" y="410" width="140" height="140" as="geometry" />
        </mxCell>
        <mxCell id="YGO5vYaP6rsr01UVL_B3-1" value="Risk template microservice" style="html=1;whiteSpace=wrap;fontStyle=1;strokeWidth=2;" vertex="1" parent="1">
          <mxGeometry x="400" y="595" width="110" height="50" as="geometry" />
        </mxCell>
        <mxCell id="YGO5vYaP6rsr01UVL_B3-2" value="&lt;br&gt;&lt;br&gt;Risk&lt;br&gt;template&lt;br&gt;Database" style="strokeWidth=2;html=1;shape=mxgraph.flowchart.database;whiteSpace=wrap;fontStyle=1" vertex="1" parent="1">
          <mxGeometry x="570" y="590" width="80" height="80" as="geometry" />
        </mxCell>
        <mxCell id="YGO5vYaP6rsr01UVL_B3-3" value="" style="endArrow=none;html=1;rounded=0;exitX=1;exitY=0.5;exitDx=0;exitDy=0;" edge="1" parent="1" source="YGO5vYaP6rsr01UVL_B3-1" target="YGO5vYaP6rsr01UVL_B3-2">
          <mxGeometry width="50" height="50" relative="1" as="geometry">
            <mxPoint x="520" y="527" as="sourcePoint" />
            <mxPoint x="620" y="620" as="targetPoint" />
          </mxGeometry>
        </mxCell>
        <mxCell id="YGO5vYaP6rsr01UVL_B3-4" value="" style="endArrow=none;html=1;rounded=0;exitX=1;exitY=0.5;exitDx=0;exitDy=0;entryX=0;entryY=0.5;entryDx=0;entryDy=0;" edge="1" parent="1" source="xg2BrnEvIoWSySNz5MbH-3" target="YGO5vYaP6rsr01UVL_B3-1">
          <mxGeometry width="50" height="50" relative="1" as="geometry">
            <mxPoint x="190" y="232" as="sourcePoint" />
            <mxPoint x="410" y="548" as="targetPoint" />
          </mxGeometry>
        </mxCell>
        <mxCell id="YGO5vYaP6rsr01UVL_B3-5" style="edgeStyle=orthogonalEdgeStyle;rounded=0;orthogonalLoop=1;jettySize=auto;html=1;endArrow=none;endFill=0;dashed=1;" edge="1" parent="1" source="YGO5vYaP6rsr01UVL_B3-2" target="UUW0Z_iSMbLDp8S3WXfS-1">
          <mxGeometry relative="1" as="geometry">
            <Array as="points">
              <mxPoint x="680" y="630" />
              <mxPoint x="680" y="460" />
            </Array>
            <mxPoint x="650" y="560" as="sourcePoint" />
            <mxPoint x="697" y="460" as="targetPoint" />
          </mxGeometry>
        </mxCell>
        <mxCell id="Dra0QNxIgkLAdRRXryqH-1" value="Miroslav&lt;br&gt;Svetle" style="shape=note;whiteSpace=wrap;html=1;backgroundOutline=1;darkOpacity=0.05;size=13;" vertex="1" parent="1">
          <mxGeometry x="25" y="300" width="80" height="50" as="geometry" />
        </mxCell>
        <mxCell id="Dra0QNxIgkLAdRRXryqH-2" style="edgeStyle=orthogonalEdgeStyle;rounded=0;orthogonalLoop=1;jettySize=auto;html=1;dashed=1;endArrow=none;endFill=0;exitX=0.5;exitY=1;exitDx=0;exitDy=0;" edge="1" parent="1" source="69hqdWO1XFi4Cxc47hLE-1" target="Dra0QNxIgkLAdRRXryqH-1">
          <mxGeometry relative="1" as="geometry">
            <mxPoint x="135" y="155" as="sourcePoint" />
            <mxPoint x="135" y="207" as="targetPoint" />
          </mxGeometry>
        </mxCell>
        <mxCell id="Dra0QNxIgkLAdRRXryqH-3" value="Martin&lt;br&gt;Python&lt;br&gt;Flask/Csharp" style="shape=note;whiteSpace=wrap;html=1;backgroundOutline=1;darkOpacity=0.05;size=16;" vertex="1" parent="1">
          <mxGeometry x="310" y="60" width="80" height="50" as="geometry" />
        </mxCell>
        <mxCell id="Dra0QNxIgkLAdRRXryqH-4" style="edgeStyle=orthogonalEdgeStyle;rounded=0;orthogonalLoop=1;jettySize=auto;html=1;dashed=1;endArrow=none;endFill=0;" edge="1" parent="1" source="xg2BrnEvIoWSySNz5MbH-4" target="Dra0QNxIgkLAdRRXryqH-3">
          <mxGeometry relative="1" as="geometry">
            <mxPoint x="135" y="257" as="sourcePoint" />
            <mxPoint x="80" y="325" as="targetPoint" />
          </mxGeometry>
        </mxCell>
        <mxCell id="Dra0QNxIgkLAdRRXryqH-10" value="Each api&lt;br&gt;1) REST API&lt;br&gt;2) connect to mongo db&lt;br&gt;3) connect to rabbitMQ" style="shape=note;whiteSpace=wrap;html=1;backgroundOutline=1;darkOpacity=0.05;" vertex="1" parent="1">
          <mxGeometry x="680" y="639" width="141" height="85" as="geometry" />
        </mxCell>
        <mxCell id="69hqdWO1XFi4Cxc47hLE-1" value="Frontend&lt;br&gt;Reactive JS client" style="html=1;whiteSpace=wrap;" vertex="1" parent="1">
          <mxGeometry x="10" y="200" width="110" height="50" as="geometry" />
        </mxCell>
        <mxCell id="Dra0QNxIgkLAdRRXryqH-5" value="Martina&lt;br&gt;Csharp" style="shape=note;whiteSpace=wrap;html=1;backgroundOutline=1;darkOpacity=0.05;size=15;" vertex="1" parent="1">
          <mxGeometry x="290" y="235" width="80" height="55" as="geometry" />
        </mxCell>
        <mxCell id="69hqdWO1XFi4Cxc47hLE-5" style="edgeStyle=orthogonalEdgeStyle;rounded=0;orthogonalLoop=1;jettySize=auto;html=1;dashed=1;endArrow=none;endFill=0;" edge="1" parent="1" source="69hqdWO1XFi4Cxc47hLE-4" target="xg2BrnEvIoWSySNz5MbH-3">
          <mxGeometry relative="1" as="geometry" />
        </mxCell>
        <mxCell id="69hqdWO1XFi4Cxc47hLE-4" value="&lt;br&gt;One API for client, handle authorization, logging etc" style="shape=note;whiteSpace=wrap;html=1;backgroundOutline=1;darkOpacity=0.05;size=19;" vertex="1" parent="1">
          <mxGeometry x="155" y="60" width="80" height="100" as="geometry" />
        </mxCell>
        <mxCell id="69hqdWO1XFi4Cxc47hLE-9" style="edgeStyle=orthogonalEdgeStyle;rounded=0;orthogonalLoop=1;jettySize=auto;html=1;endArrow=none;endFill=0;dashed=1;" edge="1" parent="1" source="69hqdWO1XFi4Cxc47hLE-8" target="xg2BrnEvIoWSySNz5MbH-3">
          <mxGeometry relative="1" as="geometry">
            <Array as="points">
              <mxPoint x="195" y="280" />
              <mxPoint x="195" y="280" />
            </Array>
          </mxGeometry>
        </mxCell>
        <mxCell id="69hqdWO1XFi4Cxc47hLE-8" value="&lt;br&gt;bottleneck of architecture, need to be multiplied and load ballanced" style="shape=note;whiteSpace=wrap;html=1;backgroundOutline=1;darkOpacity=0.05;size=19;" vertex="1" parent="1">
          <mxGeometry x="155" y="290" width="95" height="100" as="geometry" />
        </mxCell>
        <mxCell id="hNaE0RnTLsZHtdYQVoTV-1" value="Frontend&lt;br&gt;Reactive JS client" style="html=1;whiteSpace=wrap;fontStyle=1;strokeWidth=2;" vertex="1" parent="1">
          <mxGeometry x="10" y="200" width="110" height="50" as="geometry" />
        </mxCell>
        <mxCell id="hNaE0RnTLsZHtdYQVoTV-2" value="API&lt;br&gt;Gateway" style="html=1;whiteSpace=wrap;fontStyle=1;strokeWidth=2;" vertex="1" parent="1">
          <mxGeometry x="140" y="200" width="110" height="50" as="geometry" />
        </mxCell>
        <mxCell id="hNaE0RnTLsZHtdYQVoTV-3" value="Employee microservice" style="html=1;whiteSpace=wrap;" vertex="1" parent="1">
          <mxGeometry x="400" y="145" width="110" height="50" as="geometry" />
        </mxCell>
        <mxCell id="hNaE0RnTLsZHtdYQVoTV-4" value="&lt;br&gt;Employee&lt;br&gt;Database" style="strokeWidth=2;html=1;shape=mxgraph.flowchart.database;whiteSpace=wrap;" vertex="1" parent="1">
          <mxGeometry x="425" y="30" width="60" height="60" as="geometry" />
        </mxCell>
        <mxCell id="hNaE0RnTLsZHtdYQVoTV-5" value="&lt;br&gt;login&lt;br&gt;checker&lt;br&gt;database" style="strokeWidth=2;html=1;shape=mxgraph.flowchart.database;whiteSpace=wrap;" vertex="1" parent="1">
          <mxGeometry x="737" y="45" width="70" height="70" as="geometry" />
        </mxCell>
        <mxCell id="hNaE0RnTLsZHtdYQVoTV-6" value="Email service" style="html=1;whiteSpace=wrap;" vertex="1" parent="1">
          <mxGeometry x="570" y="196.5" width="110" height="50" as="geometry" />
        </mxCell>
        <mxCell id="hNaE0RnTLsZHtdYQVoTV-7" value="Password Generation&lt;br&gt;Service" style="html=1;whiteSpace=wrap;" vertex="1" parent="1">
          <mxGeometry x="570" y="130" width="110" height="50" as="geometry" />
        </mxCell>
        <mxCell id="hNaE0RnTLsZHtdYQVoTV-8" value="&lt;br&gt;login&lt;br&gt;checker&lt;br&gt;database" style="strokeWidth=2;html=1;shape=mxgraph.flowchart.database;whiteSpace=wrap;fontStyle=1" vertex="1" parent="1">
          <mxGeometry x="737" y="45" width="70" height="70" as="geometry" />
        </mxCell>
        <mxCell id="hNaE0RnTLsZHtdYQVoTV-9" value="Password Generation&lt;br&gt;Service" style="html=1;whiteSpace=wrap;fontStyle=1;strokeWidth=2;" vertex="1" parent="1">
          <mxGeometry x="570" y="130" width="110" height="50" as="geometry" />
        </mxCell>
        <mxCell id="hNaE0RnTLsZHtdYQVoTV-10" value="Email service" style="html=1;whiteSpace=wrap;fontStyle=1;strokeWidth=2;" vertex="1" parent="1">
          <mxGeometry x="570" y="196.5" width="110" height="50" as="geometry" />
        </mxCell>
        <mxCell id="hNaE0RnTLsZHtdYQVoTV-11" value="Login attempt checker" style="html=1;whiteSpace=wrap;fontStyle=1;strokeWidth=2;" vertex="1" parent="1">
          <mxGeometry x="570" y="55" width="110" height="50" as="geometry" />
        </mxCell>
        <mxCell id="hNaE0RnTLsZHtdYQVoTV-12" value="Employee microservice" style="html=1;whiteSpace=wrap;fontStyle=1;strokeWidth=2;" vertex="1" parent="1">
          <mxGeometry x="400" y="145" width="110" height="50" as="geometry" />
        </mxCell>
        <mxCell id="hNaE0RnTLsZHtdYQVoTV-13" value="&lt;br&gt;Employee&lt;br&gt;Database" style="strokeWidth=2;html=1;shape=mxgraph.flowchart.database;whiteSpace=wrap;fontStyle=1" vertex="1" parent="1">
          <mxGeometry x="425" y="30" width="60" height="60" as="geometry" />
        </mxCell>
        <mxCell id="hNaE0RnTLsZHtdYQVoTV-14" value="Project microservice" style="html=1;whiteSpace=wrap;fontStyle=1;strokeWidth=2;" vertex="1" parent="1">
          <mxGeometry x="400" y="265" width="110" height="50" as="geometry" />
        </mxCell>
        <mxCell id="hNaE0RnTLsZHtdYQVoTV-15" value="Risk microservice" style="html=1;whiteSpace=wrap;fontStyle=1;strokeWidth=2;" vertex="1" parent="1">
          <mxGeometry x="400" y="355" width="110" height="50" as="geometry" />
        </mxCell>
        <mxCell id="hNaE0RnTLsZHtdYQVoTV-16" value="Project phase microservice" style="html=1;whiteSpace=wrap;fontStyle=1;strokeWidth=2;" vertex="1" parent="1">
          <mxGeometry x="400" y="435" width="110" height="50" as="geometry" />
        </mxCell>
      </root>
    </mxGraphModel>
  </diagram>
</mxfile>
